<svg xmlns="http://www.w3.org/2000/svg" xmlns:xlink="http://www.w3.org/1999/xlink" width="100" height="100" viewBox="0 0 100 100">
  <g fill="none" fill-rule="evenodd">
    <circle cx="50" cy="50" r="40" fill="#FFFFFF"/>
    <rect width="8" height="26" x="46" y="15" fill="#4a8a64" rx="2"/>
    <rect width="8" height="26" x="46" y="59" fill="#4a8a64" rx="2"/>
    <rect width="26" height="8" x="15" y="46" fill="#4a8a64" rx="2"/>
    <rect width="26" height="8" x="59" y="46" fill="#4a8a64" rx="2"/>
    <circle cx="50" cy="50" r="16" fill="#a5e5bc"/>
    <path fill="#2c6e49" d="M50,38 C56.6,38 62,43.4 62,50 C62,56.6 56.6,62 50,62 C43.4,62 38,56.6 38,50 C38,43.4 43.4,38 50,38 Z M50,42 C45.6,42 42,45.6 42,50 C42,54.4 45.6,58 50,58 C54.4,58 58,54.4 58,50 C58,45.6 54.4,42 50,42 Z"/>
    <circle cx="25" cy="25" r="7" fill="#a5e5bc"/>
    <rect width="5" height="15" transform="rotate(45 25 25)" x="22.5" y="17.5" fill="#4a8a64" rx="2"/>
    <circle cx="75" cy="25" r="7" fill="#a5e5bc"/>
    <rect width="5" height="15" transform="rotate(-45 75 25)" x="72.5" y="17.5" fill="#4a8a64" rx="2"/>
    <circle cx="25" cy="75" r="7" fill="#a5e5bc"/>
    <rect width="5" height="15" transform="rotate(-45 25 75)" x="22.5" y="67.5" fill="#4a8a64" rx="2"/>
    <circle cx="75" cy="75" r="7" fill="#a5e5bc"/>
    <rect width="5" height="15" transform="rotate(45 75 75)" x="72.5" y="67.5" fill="#4a8a64" rx="2"/>
  </g>
</svg> 