<svg xmlns="http://www.w3.org/2000/svg" xmlns:xlink="http://www.w3.org/1999/xlink" width="100" height="100" viewBox="0 0 100 100">
  <g fill="none" fill-rule="evenodd">
    <path fill="#FFFFFF" d="M65,28 L85,38 L85,68 L65,78 L15,58 L15,28 L65,28 Z"/>
    <path fill="#4a8a64" d="M65,28 L65,78 L15,58 L15,28 L65,28 Z"/>
    <path fill="#a5e5bc" d="M65,28 L85,38 L85,68 L65,78 L65,28 Z"/>
    <path fill="#FFFFFF" d="M45,38 L63,38 L63,48 L45,48 L45,38 Z"/>
    <circle cx="30" cy="43" r="8" fill="#FFFFFF"/>
    <circle cx="74" cy="53" r="6" fill="#FFFFFF"/>
    <path fill="#2c6e49" d="M70,74 C73.3,74 76,76.7 76,80 C76,83.3 73.3,86 70,86 C66.7,86 64,83.3 64,80 C64,76.7 66.7,74 70,74 Z M70,78 C68.9,78 68,78.9 68,80 C68,81.1 68.9,82 70,82 C71.1,82 72,81.1 72,80 C72,78.9 71.1,78 70,78 Z"/>
    <path fill="#2c6e49" d="M30,74 C33.3,74 36,76.7 36,80 C36,83.3 33.3,86 30,86 C26.7,86 24,83.3 24,80 C24,76.7 26.7,74 30,74 Z M30,78 C28.9,78 28,78.9 28,80 C28,81.1 28.9,82 30,82 C31.1,82 32,81.1 32,80 C32,78.9 31.1,78 30,78 Z"/>
    <path fill="#2c6e49" d="M20,60 L24,60 L24,62 C24,63.1 24.9,64 26,64 L74,64 C75.1,64 76,63.1 76,62 L76,60 L80,60 L80,66 C80,68.2 78.2,70 76,70 L24,70 C21.8,70 20,68.2 20,66 L20,60 Z"/>
    <path stroke="#FFFFFF" stroke-width="2" stroke-dasharray="4,2" d="M35,43 L55,43"/>
  </g>
</svg> 