<svg xmlns="http://www.w3.org/2000/svg" xmlns:xlink="http://www.w3.org/1999/xlink" width="100" height="100" viewBox="0 0 100 100"><g fill="none" fill-rule="evenodd" stroke="none" stroke-width="1" stroke-linecap="butt" stroke-linejoin="miter" stroke-miterlimit="10" stroke-dasharray="" stroke-dashoffset="0" font-family="none" font-weight="none" font-size="none" text-anchor="none" style="mix-blend-mode: normal"><g><path d="M50,92c-23.196,0 -42,-18.804 -42,-42c0,-23.196 18.804,-42 42,-42c23.196,0 42,18.804 42,42c0,23.196 -18.804,42 -42,42z" fill="#2c6e49"></path><path d="M65.549,29.929c-1.222,-0.16 -4.856,0.042 -8.671,3.045c-0.016,0.013 -0.031,0.026 -0.047,0.039c-0.037,0.031 -0.063,0.068 -0.098,0.1c-2.211,1.875 -4.771,4.9 -6.607,9.291c-0.868,2.078 -1.521,4.433 -1.818,7.066l-0.007,0.067c-0.007,0.059 -0.003,0.11 -0.007,0.17c-0.137,1.543 -0.107,3.176 0.1,4.9c0.006,0.047 0.01,0.091 0.016,0.138c0.018,0.128 0.047,0.248 0.068,0.375c0.149,0.889 0.352,1.806 0.619,2.746c0.034,0.122 0.069,0.241 0.106,0.363c0.032,0.107 0.068,0.211 0.103,0.317c0.22,0.669 0.471,1.35 0.764,2.039c0.048,0.113 0.097,0.224 0.147,0.337c0.042,0.093 0.084,0.187 0.128,0.281c0.324,0.697 0.687,1.4 1.083,2.106c0.035,0.063 0.069,0.127 0.104,0.19c0.047,0.082 0.1,0.16 0.149,0.243c0.41,0.703 0.859,1.405 1.341,2.1c0.029,0.041 0.055,0.085 0.084,0.126c0.059,0.085 0.123,0.164 0.184,0.248c0.466,0.651 0.963,1.294 1.489,1.925c0.048,0.057 0.095,0.115 0.144,0.172c0.054,0.064 0.11,0.124 0.164,0.188c0.595,0.697 1.225,1.378 1.887,2.035c-0.15,0.006 -0.331,0.013 -0.48,0.02c-4.747,0.232 -9.612,0.365 -12.23,-3.162c-0.195,-0.265 -0.374,-0.543 -0.542,-0.828l-0.014,-0.023c-1.672,-2.9 -2.051,-6.296 -1.228,-9.562c0.824,-3.268 2.826,-6.108 5.531,-7.894c0,0 1.251,-0.827 2.675,-0.819c1.381,0.008 2.668,0.834 2.668,0.834l0.012,0.008c0.23,0.16 0.447,0.332 0.655,0.513l0.014,0.013c1.579,1.379 2.415,3.328 2.269,5.3c-0.144,1.973 -1.227,3.81 -2.944,5.013c-0.108,0.071 -0.232,0.155 -0.368,0.23c-0.114,0.066 -0.229,0.127 -0.347,0.183c-1.87,0.922 -4.091,0.922 -5.96,0c-1.87,-0.922 -3.144,-2.657 -3.425,-4.694c0,0 -0.126,-0.898 -0.068,-1.878c0.063,-1.027 0.428,-1.943 0.428,-1.943c0,0 0,-0.003 0.001,-0.006c0.108,-0.269 0.243,-0.534 0.404,-0.792c0.925,-1.485 2.64,-2.336 4.336,-2.154c1.697,0.183 3.166,1.357 3.729,2.99c0.564,1.632 0.117,3.45 -1.129,4.604c-1.246,1.155 -3.111,1.406 -4.63,0.623c-0.038,-0.02 -0.076,-0.04 -0.114,-0.061c-0.053,-0.028 -0.1,-0.058 -0.147,-0.089c-0.866,-0.543 -1.413,-1.467 -1.44,-2.493c-0.028,-1.026 0.467,-1.981 1.307,-2.574c0.011,-0.007 0.023,-0.017 0.033,-0.022c0.041,-0.024 0.082,-0.047 0.124,-0.068c0.77,-0.403 1.699,-0.358 2.431,0.118c0.732,0.475 1.144,1.327 1.077,2.203c-0.067,0.877 -0.594,1.664 -1.375,2.05c-0.068,0.032 -0.14,0.063 -0.212,0.087c-0.061,0.02 -0.12,0.035 -0.18,0.049c-0.496,0.118 -1.016,0.075 -1.487,-0.124c-0.055,-0.023 -0.106,-0.048 -0.158,-0.074c-0.045,-0.023 -0.088,-0.046 -0.131,-0.071c-0.341,-0.202 -0.61,-0.517 -0.746,-0.894c-0.137,-0.377 -0.138,-0.792 -0.004,-1.169c0.135,-0.377 0.402,-0.693 0.741,-0.897c0.006,-0.004 0.013,-0.007 0.018,-0.009c0.035,-0.018 0.067,-0.035 0.101,-0.05c0.312,-0.143 0.665,-0.147 0.978,-0.01c0.002,0.001 0.003,0.001 0.004,0.001c0.014,0.006 0.026,0.011 0.038,0.016c0.33,0.145 0.545,0.47 0.548,0.831c0.002,0.036 0.003,0.071 0.003,0.107c0.001,0.034 0,0.067 -0.003,0.101c-0.022,0.359 -0.245,0.676 -0.575,0.82c-0.163,0.068 -0.34,0.093 -0.52,0.073c-0.018,-0.002 -0.035,-0.004 -0.053,-0.007c-0.016,-0.002 -0.031,-0.004 -0.047,-0.007c-0.174,-0.028 -0.337,-0.106 -0.469,-0.224c-0.011,-0.01 -0.022,-0.02 -0.033,-0.03c-0.01,-0.01 -0.019,-0.018 -0.029,-0.028c-0.121,-0.123 -0.207,-0.28 -0.24,-0.446l0.003,0.001c-0.063,-0.34 0.163,-0.708 0.539,-0.83c0.009,-0.003 0.019,-0.006 0.028,-0.008c0.016,-0.004 0.032,-0.008 0.048,-0.011c0.341,-0.063 0.71,0.162 0.831,0.536c0.122,0.374 -0.053,0.78 -0.424,0.943c-0.004,0.002 -0.009,0.004 -0.013,0.006c-0.006,0.003 -0.013,0.005 -0.019,0.008c-0.365,0.127 -0.779,-0.045 -0.945,-0.416c0,0 -0.048,-0.105 -0.056,-0.126c-0.009,-0.023 -0.015,-0.047 -0.018,-0.071c-0.051,-0.364 0.211,-0.767 0.608,-0.881c0.397,-0.114 0.818,0.111 0.927,0.438" fill="#ffffff"></path><path d="M50,20c16.569,0 30,13.431 30,30c0,16.569 -13.431,30 -30,30c-16.569,0 -30,-13.431 -30,-30c0,-16.569 13.431,-30 30,-30zM50,23c-14.912,0 -27,12.088 -27,27c0,14.912 12.088,27 27,27c14.912,0 27,-12.088 27,-27c0,-14.912 -12.088,-27 -27,-27z" fill="#ffffff"></path></g></g></svg>