<svg xmlns="http://www.w3.org/2000/svg" xmlns:xlink="http://www.w3.org/1999/xlink" width="100" height="100" viewBox="0 0 100 100">
  <g fill="none" fill-rule="evenodd">
    <rect width="80" height="60" x="10" y="20" fill="#FFFFFF" rx="3"/>
    <rect width="80" height="12" x="10" y="20" fill="#4a8a64" rx="3 3 0 0"/>
    <circle cx="18" cy="26" r="2" fill="#FF5F57"/>
    <circle cx="26" cy="26" r="2" fill="#FFBD2E"/>
    <circle cx="34" cy="26" r="2" fill="#28CA42"/>
    <rect width="60" height="8" x="20" y="40" fill="#F0F8F4" rx="2"/>
    <rect width="30" height="8" x="20" y="54" fill="#F0F8F4" rx="2"/>
    <path fill="#2c6e49" d="M65,50 L65,66 L83,58 L65,50 Z" rx="2"/>
    <rect width="40" height="4" x="20" y="68" fill="#a5e5bc" rx="2"/>
    <g transform="translate(70, 70)">
      <circle cx="10" cy="10" r="10" fill="#4a8a64"/>
      <path fill="#FFFFFF" d="M14.24,7.67 L10.57,11.34 L8.76,9.53 C8.53,9.3 8.15,9.3 7.91,9.53 C7.68,9.76 7.68,10.14 7.91,10.38 L10.14,12.62 C10.38,12.85 10.76,12.85 11,12.62 L15.09,8.53 C15.32,8.3 15.32,7.91 15.09,7.67 C14.85,7.44 14.47,7.44 14.24,7.67 Z"/>
    </g>
  </g>
</svg> 